<svg width="80" height="39" viewBox="0 0 80 39" fill="none" xmlns="http://www.w3.org/2000/svg">
<g clip-path="url(#clip0_13_43)">
<path d="M70.3027 27.9123C70.3027 27.1673 71.1042 26.6592 72.3573 26.6592C73.7176 26.6592 74.4345 27.2237 74.5699 28.0986H78.1486C77.9623 25.1634 75.6085 23.6168 72.3573 23.6168C68.5924 23.6168 66.566 25.6997 66.566 28.0986C66.566 34.1552 74.5191 31.3837 74.5191 33.9182C74.5191 34.7197 73.7458 35.2277 72.3573 35.2277C70.9687 35.2277 70.1672 34.7197 70.06 33.7319H66.295C66.3797 36.588 68.2989 38.383 72.3291 38.383C76.3593 38.383 78.538 36.4074 78.538 33.6867C78.5211 27.4608 70.3027 30.2097 70.3027 27.9123Z" fill="#52CCC6"/>
<path d="M32.902 25.3103V31.8637C32.902 33.3595 31.9424 34.5561 30.5031 34.5561C29.0637 34.5561 28.2452 33.5457 28.2452 32.0782V25.5643L24.1078 25.7901V33.3595C24.1078 36.2946 26.0269 38.4001 29.1484 38.4001C29.8862 38.4353 30.6206 38.2792 31.2802 37.9469C31.9399 37.6146 32.5025 37.1174 32.9133 36.5035H33.1278V38.0558H37.0789V25.0732L32.902 25.3103Z" fill="#52CCC6"/>
<path d="M78.9445 16.8773C79.6433 15.6989 80.0082 14.3525 80 12.9825C80 8.81683 76.935 5.58813 72.425 5.58813C67.915 5.58813 64.8162 8.80554 64.8162 12.9825C64.7964 14.6396 65.3331 16.2555 66.3402 17.5716L78.9445 16.8773ZM72.3968 9.31355C74.3724 9.31355 75.8118 10.8319 75.8118 12.9712C75.8118 15.1105 74.3724 16.6233 72.3968 16.6233C70.4212 16.6233 69.0101 15.1331 69.0101 12.9712C69.0101 10.8094 70.4494 9.31355 72.3968 9.31355V9.31355Z" fill="#070038"/>
<path d="M54.4867 18.2093L58.8105 5.92676H54.4642L51.529 15.1048H51.3145L48.3794 5.92676H44.0839L48.5487 18.5311L54.4867 18.2093Z" fill="#070038"/>
<path d="M6.51379 20.36C7.27554 20.397 8.034 20.2373 8.71613 19.8963C9.39826 19.5552 9.9811 19.0443 10.4085 18.4126H10.623V20.0157H14.7322V5.90427H10.5948V7.50168H10.3803C9.93392 6.87585 9.33938 6.37041 8.64987 6.03057C7.96035 5.69074 7.19736 5.5271 6.42913 5.5543C2.61342 5.57688 0 8.61931 0 13.0503C0 17.4813 2.64164 20.36 6.51379 20.36ZM7.41692 9.31359C9.31348 9.31359 10.6738 10.7304 10.6738 12.9713C10.6738 15.0485 9.42073 16.6233 7.44514 16.6233C5.46955 16.6233 4.18825 15.1557 4.18825 12.9826C4.18825 10.8094 5.49778 9.31359 7.41692 9.31359V9.31359Z" fill="#070038"/>
<path d="M26.01 19.756L31.7448 19.4455C32.1362 19.1647 32.4728 18.8146 32.7383 18.4126H32.9528V19.3834L37.0394 19.1915V0H32.902V7.52421H32.6875C32.2411 6.89838 31.6465 6.39294 30.957 6.0531C30.2675 5.71327 29.5045 5.54963 28.7363 5.57683C24.9432 5.57683 22.3297 8.61926 22.3297 13.0502C22.3072 16.2959 23.707 18.7005 26.01 19.756ZM29.7241 9.31354C31.6094 9.31354 32.981 10.7247 32.981 12.9825C32.981 15.0597 31.7279 16.6345 29.7523 16.6345C27.7767 16.6345 26.4954 15.167 26.4954 12.9825C26.4954 10.7981 27.8049 9.31354 29.7241 9.31354Z" fill="#070038"/>
<path d="M7.55244 27.3536C8.19854 27.333 8.83341 27.5259 9.35888 27.9024C9.88434 28.2789 10.2711 28.8181 10.4594 29.4365H14.6758C14.5523 28.3304 14.146 27.2749 13.4961 26.3715L1.12896 27.0432C0.434145 28.2433 0.0735642 29.6077 0.0847241 30.9944C0.0790795 35.1431 3.01424 38.3831 7.55244 38.3831C11.4246 38.3831 14.1735 36.0632 14.625 32.7385H10.4086C10.2066 33.3191 9.82314 33.8192 9.31484 34.1649C8.80654 34.5105 8.20046 34.6833 7.58631 34.6577C5.5825 34.6577 4.27297 33.0603 4.27297 31.0056C4.27297 28.951 5.52606 27.3536 7.55244 27.3536Z" fill="#52CCC6"/>
<path d="M56.4905 27.1956V24.0233L46.4037 24.5878V27.2069H48.6615V33.1732C48.6615 36.2664 50.5016 38.0557 53.5723 38.0557H56.4453V34.6407H54.6221C53.3973 34.6407 52.8102 33.9973 52.8102 32.9474V27.1956H56.4905Z" fill="#52CCC6"/>
</g>
<defs>
<clipPath id="clip0_13_43">
<rect width="80" height="38.4" fill="white"/>
</clipPath>
</defs>
</svg>
